<?xml version="1.0" encoding="utf-8"?>
<svg version="1.1" id="Capa_1" x="0px" y="0px" width="300px" height="300px" viewBox="0 0 300 300" style="enable-background:new 0 0 336.591 336.592;" xmlns="http://www.w3.org/2000/svg">
<g transform="matrix(1.248476, 0, 0, 1.248476, -9.317122, -24.753366)">
    <path d="M 63.1 54.527 C 92.682 50.647 122.263 53.557 151.844 63.256 C 164.912 67.541 181.102 79.931 193.333 91.287 C 203.652 100.867 216.351 123.492 216.351 123.492 C 216.351 123.492 231.202 151.475 235.227 165.598 C 238.597 177.423 242.213 201.818 242.213 201.818 C 242.213 201.818 244.381 216.441 244.559 223.812 C 244.701 229.701 243.534 241.453 243.534 241.453 C 243.534 241.453 242.43 251.217 238.792 250.978 C 233.844 250.653 232.756 248.756 232.609 237.177 C 232.482 227.172 229.402 193.954 222.484 168.922 C 219.924 159.66 211.91 141.382 203.932 129.104 C 195.931 116.791 186.358 105.193 175.002 95.884 C 165.103 87.769 163.544 83.349 141.66 76.834 C 111.705 67.916 89.883 64.683 76.193 67.135 C 64.839 69.169 59.181 67.392 59.221 61.801 C 59.237 59.487 60.53 57.062 63.1 54.527"/>
    <path d="M 66.196 67.442 C 58.24 72.95 50.896 78.458 43.551 83.966 C 38.043 88.25 33.148 93.758 25.803 91.922 C 23.356 91.31 21.52 88.862 21.52 86.414 C 21.52 79.07 28.251 76.01 33.759 71.726 C 38.655 68.054 44.163 64.382 49.06 60.71 C 38.043 53.366 24.58 49.082 14.175 39.902 C 8.667 35.006 15.4 28.274 21.52 30.722 C 29.476 34.394 37.431 38.066 44.776 41.738 C 52.12 45.41 61.299 49.082 67.42 55.202 C 71.703 58.874 70.48 64.994 66.196 67.442 Z" transform="matrix(-1, 0, 0, -1, 82.220558, 122.48765)"/>
  </g>
</svg>
