<?xml version="1.0" encoding="utf-8"?>
<svg version="1.1" id="Capa_1" x="0px" y="0px" width="300px" height="300px" viewBox="0 0 300 300" style="enable-background:new 0 0 323.057 323.057;" xmlns="http://www.w3.org/2000/svg">
  <g transform="matrix(1, 0, 0, 1, -40.320435, -20.945681)">
    <g transform="matrix(0.658651, 0, 0, 0.669928, 92.800476, 37.989403)"/>
  </g>
  <g transform="matrix(1.675401, 0, 0, 1.675401, -120.437347, -148.17363)">
    <path style="stroke-linecap: square; stroke-linejoin: round;" d="M 225.908 215.311 C 214.516 230.384 197.142 243.575 178.537 246.438 C 154.581 250.124 132.636 239.748 112.703 215.31 C 102.618 202.946 94.335 187.273 88.999 171.573 C 82.004 150.993 78.776 133.328 77.009 113.949 C 76.766 111.28 77.443 107.192 80.032 106.5 C 82.577 105.819 85.104 112.956 85.62 115.539 C 89.078 132.862 91.595 147.619 97.667 164.106 C 102.666 177.68 105.32 186.668 117.712 203.503 C 127.584 216.914 138.196 228.695 157.069 234.273 C 169.498 237.946 182.378 236.515 195.711 229.979 C 204.108 225.863 211.502 220.138 217.894 212.805 C 218.781 211.788 219.735 210.834 220.756 209.943 C 221.979 208.876 224.957 209.554 226.148 211.728 C 226.657 212.656 226.798 214.134 225.908 215.311 Z"/>
    <path d="M 241.229 193.412 C 229.943 193.412 218.253 194.232 207.369 197.102 C 202.936 198.332 204.951 204.482 209.386 203.662 C 218.254 202.022 227.525 202.432 236.393 202.842 C 235.99 208.171 235.587 213.911 234.781 219.241 C 233.974 223.341 231.153 229.491 233.571 233.591 C 234.781 235.641 236.796 235.641 238.812 234.821 C 243.649 232.771 243.649 224.161 244.455 219.651 C 245.664 212.27 246.067 205.301 246.067 197.92 C 246.067 195.462 243.648 193.412 241.229 193.412 Z"/>
  </g>
</svg>
