<?xml version="1.0" encoding="iso-8859-1"?>
<svg version="1.1" id="Capa_1" xmlns="http://www.w3.org/2000/svg" xmlns:xlink="http://www.w3.org/1999/xlink" x="0px" y="0px"
	 viewBox="0 0 203.996 203.996" style="enable-background:new 0 0 203.996 203.996;" xml:space="preserve">
<path d="M182.39,5v169.151c0,2.762-2.238,5-5,5h-9.61V19.609c0-2.762-2.238-5-5-5H50.105V5c0-2.762,2.238-5,5-5H177.39
	C180.152,0,182.39,2.238,182.39,5z M154.196,33.783v165.213c0,2.762-2.238,5-5,5H26.606c-2.762,0-5-2.238-5-5V33.783
	c0-2.762,2.238-5,5-5h122.59C151.958,28.783,154.196,31.021,154.196,33.783z M40.248,94.254c0,2.762,2.238,5,5,5h71
	c2.762,0,5-2.238,5-5s-2.238-5-5-5h-71C42.486,89.254,40.248,91.492,40.248,94.254z M45.248,79.664H89.01c2.762,0,5-2.238,5-5
	s-2.238-5-5-5H45.248c-2.762,0-5,2.238-5,5S42.486,79.664,45.248,79.664z M135.554,164.395c0-2.762-2.238-5-5-5H45.248
	c-2.762,0-5,2.238-5,5s2.238,5,5,5h85.307C133.316,169.395,135.554,167.156,135.554,164.395z M135.554,144.806c0-2.762-2.238-5-5-5
	H45.248c-2.762,0-5,2.238-5,5s2.238,5,5,5h85.307C133.316,149.806,135.554,147.567,135.554,144.806z M135.554,55.075
	c0-2.762-2.238-5-5-5H45.248c-2.762,0-5,2.238-5,5s2.238,5,5,5h85.307C133.316,60.075,135.554,57.837,135.554,55.075z"/>
</svg>
